<svg xmlns="http://www.w3.org/2000/svg" width="1000" height="800"><rect width="1000" height="800" x="0" y="0" fill="#FFFFFF" id="background"/><g id="viz"><clipPath id="serieClipPath"><rect x="-50" y="-10" width="333.3333333333333" height="400"/></clipPath><g id="Disc" transform="translate(0,0)"><g transform="translate(50,10)" clip-path="url(#serieClipPath)"><g id="axis"><g transform="translate(0,370)" fill="none" font-size="10" font-family="sans-serif" text-anchor="middle"><path class="domain" stroke="currentColor" d="M0.5,6V0.5H268.8333333333333V6"/><g class="tick" opacity="1" transform="translate(0.5,0)"><line stroke="currentColor" y2="6"/><text fill="currentColor" y="9" dy="0.71em">1970</text></g><g class="tick" opacity="1" transform="translate(27.3303946263644,0)"><line stroke="currentColor" y2="6"/><text fill="currentColor" y="9" dy="0.71em">1975</text></g><g class="tick" opacity="1" transform="translate(54.1607892527288,0)"><line stroke="currentColor" y2="6"/><text fill="currentColor" y="9" dy="0.71em">1980</text></g><g class="tick" opacity="1" transform="translate(81.00587741393785,0)"><line stroke="currentColor" y2="6"/><text fill="currentColor" y="9" dy="0.71em">1985</text></g><g class="tick" opacity="1" transform="translate(107.83565980968373,0)"><line stroke="currentColor" y2="6"/><text fill="currentColor" y="9" dy="0.71em">1990</text></g><g class="tick" opacity="1" transform="translate(134.66666666666666,0)"><line stroke="currentColor" y2="6"/><text fill="currentColor" y="9" dy="0.71em">1995</text></g><g class="tick" opacity="1" transform="translate(161.49706129303104,0)"><line stroke="currentColor" y2="6"/><text fill="currentColor" y="9" dy="0.71em">2000</text></g><g class="tick" opacity="1" transform="translate(188.34214945424011,0)"><line stroke="currentColor" y2="6"/><text fill="currentColor" y="9" dy="0.71em">2005</text></g><g class="tick" opacity="1" transform="translate(215.17254408060452,0)"><line stroke="currentColor" y2="6"/><text fill="currentColor" y="9" dy="0.71em">2010</text></g><g class="tick" opacity="1" transform="translate(242.00293870696893,0)"><line stroke="currentColor" y2="6"/><text fill="currentColor" y="9" dy="0.71em">2015</text></g><g class="tick" opacity="1" transform="translate(268.8333333333333,0)"><line stroke="currentColor" y2="6"/><text fill="currentColor" y="9" dy="0.71em">2020</text></g><text x="268.3333333333333" dy="-5" text-anchor="end" style="font-family: Arial, sans-serif; font-size: 12px; fill: rgb(123, 123, 123); font-weight: bold;">Year</text></g><g transform="translate(0,0)" fill="none" font-size="10" font-family="sans-serif" text-anchor="end"><path class="domain" stroke="currentColor" d="M0.5,370.5V0.5"/><g class="tick" opacity="1" transform="translate(0,370.5)"><line stroke="currentColor" x2="-6"/><text fill="currentColor" x="-9" dy="0.32em">0</text></g><g class="tick" opacity="1" transform="translate(0,336.8636363636364)"><line stroke="currentColor" x2="-6"/><text fill="currentColor" x="-9" dy="0.32em">2,000</text></g><g class="tick" opacity="1" transform="translate(0,303.2272727272727)"><line stroke="currentColor" x2="-6"/><text fill="currentColor" x="-9" dy="0.32em">4,000</text></g><g class="tick" opacity="1" transform="translate(0,269.5909090909091)"><line stroke="currentColor" x2="-6"/><text fill="currentColor" x="-9" dy="0.32em">6,000</text></g><g class="tick" opacity="1" transform="translate(0,235.95454545454544)"><line stroke="currentColor" x2="-6"/><text fill="currentColor" x="-9" dy="0.32em">8,000</text></g><g class="tick" opacity="1" transform="translate(0,202.3181818181818)"><line stroke="currentColor" x2="-6"/><text fill="currentColor" x="-9" dy="0.32em">10,000</text></g><g class="tick" opacity="1" transform="translate(0,168.6818181818182)"><line stroke="currentColor" x2="-6"/><text fill="currentColor" x="-9" dy="0.32em">12,000</text></g><g class="tick" opacity="1" transform="translate(0,135.04545454545456)"><line stroke="currentColor" x2="-6"/><text fill="currentColor" x="-9" dy="0.32em">14,000</text></g><g class="tick" opacity="1" transform="translate(0,101.4090909090909)"><line stroke="currentColor" x2="-6"/><text fill="currentColor" x="-9" dy="0.32em">16,000</text></g><g class="tick" opacity="1" transform="translate(0,67.77272727272725)"><line stroke="currentColor" x2="-6"/><text fill="currentColor" x="-9" dy="0.32em">18,000</text></g><g class="tick" opacity="1" transform="translate(0,34.13636363636365)"><line stroke="currentColor" x2="-6"/><text fill="currentColor" x="-9" dy="0.32em">20,000</text></g><g class="tick" opacity="1" transform="translate(0,0.5)"><line stroke="currentColor" x2="-6"/><text fill="currentColor" x="-9" dy="0.32em">22,000</text></g><text x="4" text-anchor="start" dominant-baseline="hanging" style="font-family: Arial, sans-serif; font-size: 12px; fill: rgb(123, 123, 123); font-weight: bold;">Revenues in millions (Adjusted for inflation)</text></g></g><g id="viz"><g id="Disc"><path d="M69.76490344248529,369.2574839594682C72.44647355163727,369.2574839594682,72.44647355163727,365.72514384572725,75.12804366078925,365.72514384572725C77.81696053736354,365.72514384572725,77.81696053736354,354.4356165274091,80.50587741393785,354.4356165274091C83.18744752308983,354.4356165274091,83.18744752308983,333.5115158340909,85.8690176322418,333.5115158340909C88.55058774139377,333.5115158340909,88.55058774139377,309.6832793536364,91.23215785054575,309.6832793536364C93.91372795969772,309.6832793536364,93.91372795969772,293.6851183202591,96.5952980688497,293.6851183202591C99.28390883011474,293.6851183202591,99.28390883011474,280.2717965568182,101.97251959137978,280.2717965568182C104.65408970053176,280.2717965568182,104.65408970053176,256.2540627420045,107.33565980968373,256.2540627420045C110.01722991883571,256.2540627420045,110.01722991883571,231.95545856574088,112.69880002798767,231.95545856574088C115.38037013713965,231.95545856574088,115.38037013713965,205.37995132845455,118.06194024629163,205.37995132845455C120.75085712286594,205.37995132845455,120.75085712286594,174.88650209189998,123.43977399944023,174.88650209189998C126.12165022390148,174.88650209189998,126.12165022390148,122.79417175778634,128.80352644836273,122.79417175778634C131.48509655751468,122.79417175778634,131.48509655751468,102.30505371559092,134.16666666666666,102.30505371559092C136.84823677581863,102.30505371559092,136.84823677581863,92.7045138386818,139.52980688497058,92.7045138386818C142.21872376154488,92.7045138386818,142.21872376154488,97.07576261663635,144.9076406381192,97.07576261663635C147.58921074727118,97.07576261663635,147.58921074727118,63.239832013000026,150.27078085642316,63.239832013000026C152.95235096557514,63.239832013000026,152.95235096557514,33.49150855395456,155.6339210747271,33.49150855395456C158.3154911838791,33.49150855395456,158.3154911838791,36.48220318550002,160.99706129303104,36.48220318550002C163.68597816960533,36.48220318550002,163.68597816960533,54.65409177854549,166.37489504617966,54.65409177854549C169.05646515533164,54.65409177854549,169.05646515533164,81.67247975708639,171.7380352644836,81.67247975708639C174.4196053736356,81.67247975708639,174.4196053736356,106.05536800665908,177.10117548278757,106.05536800665908C179.78274559193954,106.05536800665908,179.78274559193954,108.73888380886363,182.4643157010915,108.73888380886363C185.1532325776658,108.73888380886363,185.1532325776658,137.9292415255091,187.84214945424011,137.9292415255091C190.5237195633921,137.9292415255091,190.5237195633921,169.82146819643816,193.20528967254407,169.82146819643816C195.88685978169605,169.82146819643816,195.88685978169605,215.10137802195,198.56842989084802,215.10137802195C201.2496938846907,215.10137802195,201.2496938846907,260.60417439484183,203.93095787853343,260.60417439484183C206.61987475510773,260.60417439484183,206.61987475510773,283.33368241182046,209.30879163168203,283.33368241182046C211.99066785614326,283.33368241182046,211.99066785614326,303.07620989141134,214.67254408060452,303.07620989141134C217.3541141897565,303.07620989141134,217.3541141897565,310.634863107935,220.03568429890848,310.634863107935C222.71725440806046,310.634863107935,222.71725440806046,323.36549860794497,225.3988245172124,323.36549860794497C228.0877413937867,323.36549860794497,228.0877413937867,330.42189595563815,230.77665827036103,330.42189595563815C233.458228379513,330.42189595563815,233.458228379513,337.6595680565496,236.13979848866498,337.6595680565496C238.82136859781696,337.6595680565496,238.82136859781696,343.74597625430226,241.50293870696893,343.74597625430226C244.1845088161209,343.74597625430226,244.1845088161209,349.7162014769691,246.86607892527286,349.7162014769691C249.55499580184716,349.7162014769691,249.55499580184716,351.412482328425,252.24391267842148,351.412482328425C254.92548278757346,351.412482328425,254.92548278757346,358.02420162035776,257.60705289672546,358.02420162035776C260.2886230058774,358.02420162035776,260.2886230058774,359.6547199274591,262.97019311502936,359.6547199274591" stroke="#1f77b4" fill="none"/><text font-family="sans-serif" font-size="10" class="labels" x="155.6339210747271" y="33.49150855395456" dx="0" dy="-4" text-anchor="middle">Disc</text></g></g></g><text y="4" x="4" style="font-family: Arial, sans-serif; font-size: 12px; fill: black; font-weight: bold; dominant-baseline: hanging;">Disc</text></g><g id="Tape" transform="translate(333.3333333333333,0)"><g transform="translate(50,10)" clip-path="url(#serieClipPath)"><g id="axis"><g transform="translate(0,370)" fill="none" font-size="10" font-family="sans-serif" text-anchor="middle"><path class="domain" stroke="currentColor" d="M0.5,6V0.5H268.8333333333333V6"/><g class="tick" opacity="1" transform="translate(0.5,0)"><line stroke="currentColor" y2="6"/><text fill="currentColor" y="9" dy="0.71em">1970</text></g><g class="tick" opacity="1" transform="translate(27.3303946263644,0)"><line stroke="currentColor" y2="6"/><text fill="currentColor" y="9" dy="0.71em">1975</text></g><g class="tick" opacity="1" transform="translate(54.1607892527288,0)"><line stroke="currentColor" y2="6"/><text fill="currentColor" y="9" dy="0.71em">1980</text></g><g class="tick" opacity="1" transform="translate(81.00587741393785,0)"><line stroke="currentColor" y2="6"/><text fill="currentColor" y="9" dy="0.71em">1985</text></g><g class="tick" opacity="1" transform="translate(107.83565980968373,0)"><line stroke="currentColor" y2="6"/><text fill="currentColor" y="9" dy="0.71em">1990</text></g><g class="tick" opacity="1" transform="translate(134.66666666666666,0)"><line stroke="currentColor" y2="6"/><text fill="currentColor" y="9" dy="0.71em">1995</text></g><g class="tick" opacity="1" transform="translate(161.49706129303104,0)"><line stroke="currentColor" y2="6"/><text fill="currentColor" y="9" dy="0.71em">2000</text></g><g class="tick" opacity="1" transform="translate(188.34214945424011,0)"><line stroke="currentColor" y2="6"/><text fill="currentColor" y="9" dy="0.71em">2005</text></g><g class="tick" opacity="1" transform="translate(215.17254408060452,0)"><line stroke="currentColor" y2="6"/><text fill="currentColor" y="9" dy="0.71em">2010</text></g><g class="tick" opacity="1" transform="translate(242.00293870696893,0)"><line stroke="currentColor" y2="6"/><text fill="currentColor" y="9" dy="0.71em">2015</text></g><g class="tick" opacity="1" transform="translate(268.8333333333333,0)"><line stroke="currentColor" y2="6"/><text fill="currentColor" y="9" dy="0.71em">2020</text></g><text x="268.3333333333333" dy="-5" text-anchor="end" display="none" style="font-family: Arial, sans-serif; font-size: 12px; fill: rgb(123, 123, 123); font-weight: bold;">Year</text></g><g transform="translate(0,0)" fill="none" font-size="10" font-family="sans-serif" text-anchor="end"><path class="domain" stroke="currentColor" d="M0.5,370.5V0.5"/><g class="tick" opacity="1" transform="translate(0,370.5)"><line stroke="currentColor" x2="-6"/><text fill="currentColor" x="-9" dy="0.32em">0</text></g><g class="tick" opacity="1" transform="translate(0,336.8636363636364)"><line stroke="currentColor" x2="-6"/><text fill="currentColor" x="-9" dy="0.32em">2,000</text></g><g class="tick" opacity="1" transform="translate(0,303.2272727272727)"><line stroke="currentColor" x2="-6"/><text fill="currentColor" x="-9" dy="0.32em">4,000</text></g><g class="tick" opacity="1" transform="translate(0,269.5909090909091)"><line stroke="currentColor" x2="-6"/><text fill="currentColor" x="-9" dy="0.32em">6,000</text></g><g class="tick" opacity="1" transform="translate(0,235.95454545454544)"><line stroke="currentColor" x2="-6"/><text fill="currentColor" x="-9" dy="0.32em">8,000</text></g><g class="tick" opacity="1" transform="translate(0,202.3181818181818)"><line stroke="currentColor" x2="-6"/><text fill="currentColor" x="-9" dy="0.32em">10,000</text></g><g class="tick" opacity="1" transform="translate(0,168.6818181818182)"><line stroke="currentColor" x2="-6"/><text fill="currentColor" x="-9" dy="0.32em">12,000</text></g><g class="tick" opacity="1" transform="translate(0,135.04545454545456)"><line stroke="currentColor" x2="-6"/><text fill="currentColor" x="-9" dy="0.32em">14,000</text></g><g class="tick" opacity="1" transform="translate(0,101.4090909090909)"><line stroke="currentColor" x2="-6"/><text fill="currentColor" x="-9" dy="0.32em">16,000</text></g><g class="tick" opacity="1" transform="translate(0,67.77272727272725)"><line stroke="currentColor" x2="-6"/><text fill="currentColor" x="-9" dy="0.32em">18,000</text></g><g class="tick" opacity="1" transform="translate(0,34.13636363636365)"><line stroke="currentColor" x2="-6"/><text fill="currentColor" x="-9" dy="0.32em">20,000</text></g><g class="tick" opacity="1" transform="translate(0,0.5)"><line stroke="currentColor" x2="-6"/><text fill="currentColor" x="-9" dy="0.32em">22,000</text></g><text x="4" text-anchor="start" dominant-baseline="hanging" display="none" style="font-family: Arial, sans-serif; font-size: 12px; fill: rgb(123, 123, 123); font-weight: bold;">Revenues in millions (Adjusted for inflation)</text></g></g><g id="viz"><g id="Tape"><path d="M16.10411418975651,313.7748279597227C18.78568429890848,313.7748279597227,18.78568429890848,313.33659360026365,21.46725440806045,313.33659360026365C24.148824517212425,313.33659360026365,24.148824517212425,314.6954897968409,26.8303946263644,314.6954897968409C29.511964735516372,314.6954897968409,29.511964735516372,307.35606996260003,32.19353484466834,307.35606996260003C34.882451721242646,307.35606996260003,34.882451721242646,294.74840140363636,37.57136859781696,294.74840140363636C40.25293870696893,294.74840140363636,40.25293870696893,277.8205373740909,42.9345088161209,277.8205373740909C45.61607892527287,277.8205373740909,45.61607892527287,295.08715280136363,48.29764903442485,295.08715280136363C50.97921914357683,295.08715280136363,50.97921914357683,305.7134339809091,53.6607892527288,305.7134339809091C56.3497061293031,305.7134339809091,56.3497061293031,304.92290567931815,59.03862300587741,304.92290567931815C61.72019311502939,304.92290567931815,61.72019311502939,306.7077322879818,64.40176322418137,306.7077322879818C67.08333333333333,306.7077322879818,67.08333333333333,291.8242850127273,69.76490344248529,291.8242850127273C72.44647355163727,291.8242850127273,72.44647355163727,271.34724505863636,75.12804366078925,271.34724505863636C77.81696053736354,271.34724505863636,77.81696053736354,273.6366861540909,80.50587741393785,273.6366861540909C83.18744752308983,273.6366861540909,83.18744752308983,271.9428382295455,85.8690176322418,271.9428382295455C88.55058774139377,271.9428382295455,88.55058774139377,257.43603966424547,91.23215785054575,257.43603966424547C93.91372795969772,257.43603966424547,93.91372795969772,244.88386496731815,96.5952980688497,244.88386496731815C99.28390883011474,244.88386496731815,99.28390883011474,247.23703231818183,101.97251959137978,247.23703231818183C104.65408970053176,247.23703231818183,104.65408970053176,247.28295067877272,107.33565980968373,247.28295067877272C110.01722991883571,247.28295067877272,110.01722991883571,267.40103374536363,112.69880002798767,267.40103374536363C115.38037013713965,267.40103374536363,115.38037013713965,265.33957699627274,118.06194024629163,265.33957699627274C120.75085712286594,265.33957699627274,120.75085712286594,274.35653690095455,123.43977399944023,274.35653690095455C126.12165022390148,274.35653690095455,126.12165022390148,275.6709258024091,128.80352644836273,275.6709258024091C131.48509655751468,275.6709258024091,131.48509655751468,298.3413894957273,134.16666666666666,298.3413894957273C136.84823677581863,298.3413894957273,136.84823677581863,312.5996041685,139.52980688497058,312.5996041685C142.21872376154488,312.5996041685,142.21872376154488,325.6315277100909,144.9076406381192,325.6315277100909C147.58921074727118,325.6315277100909,147.58921074727118,330.0551265535909,150.27078085642316,330.0551265535909C152.95235096557514,330.0551265535909,152.95235096557514,341.36295627391365,155.6339210747271,341.36295627391365C158.3154911838791,341.36295627391365,158.3154911838791,354.2544603125541,160.99706129303104,354.2544603125541C163.68597816960533,354.2544603125541,163.68597816960533,361.17726787513635,166.37489504617966,361.17726787513635C169.05646515533164,361.17726787513635,169.05646515533164,364.9856914743182,171.7380352644836,364.9856914743182C174.4196053736356,364.9856914743182,174.4196053736356,367.4739345284091,177.10117548278757,367.4739345284091C179.78274559193954,367.4739345284091,179.78274559193954,369.4605476122455,182.4643157010915,369.4605476122455C185.1532325776658,369.4605476122455,185.1532325776658,369.71159300864997,187.84214945424011,369.71159300864997C190.5237195633921,369.71159300864997,190.5237195633921,369.92108711376363,193.20528967254407,369.92108711376363C195.88685978169605,369.92108711376363,195.88685978169605,369.9377758913277,198.56842989084802,369.9377758913277C201.2496938846907,369.9377758913277,201.2496938846907,369.9820266446968,203.93095787853343,369.9820266446968" stroke="#9467bd" fill="none"/><text font-family="sans-serif" font-size="10" class="labels" x="96.5952980688497" y="244.88386496731815" dx="0" dy="-4" text-anchor="middle">Tape</text></g></g></g><text y="4" x="4" style="font-family: Arial, sans-serif; font-size: 12px; fill: black; font-weight: bold; dominant-baseline: hanging;">Tape</text></g><g id="Vinyl" transform="translate(666.6666666666666,0)"><g transform="translate(50,10)" clip-path="url(#serieClipPath)"><g id="axis"><g transform="translate(0,370)" fill="none" font-size="10" font-family="sans-serif" text-anchor="middle"><path class="domain" stroke="currentColor" d="M0.5,6V0.5H268.8333333333333V6"/><g class="tick" opacity="1" transform="translate(0.5,0)"><line stroke="currentColor" y2="6"/><text fill="currentColor" y="9" dy="0.71em">1970</text></g><g class="tick" opacity="1" transform="translate(27.3303946263644,0)"><line stroke="currentColor" y2="6"/><text fill="currentColor" y="9" dy="0.71em">1975</text></g><g class="tick" opacity="1" transform="translate(54.1607892527288,0)"><line stroke="currentColor" y2="6"/><text fill="currentColor" y="9" dy="0.71em">1980</text></g><g class="tick" opacity="1" transform="translate(81.00587741393785,0)"><line stroke="currentColor" y2="6"/><text fill="currentColor" y="9" dy="0.71em">1985</text></g><g class="tick" opacity="1" transform="translate(107.83565980968373,0)"><line stroke="currentColor" y2="6"/><text fill="currentColor" y="9" dy="0.71em">1990</text></g><g class="tick" opacity="1" transform="translate(134.66666666666666,0)"><line stroke="currentColor" y2="6"/><text fill="currentColor" y="9" dy="0.71em">1995</text></g><g class="tick" opacity="1" transform="translate(161.49706129303104,0)"><line stroke="currentColor" y2="6"/><text fill="currentColor" y="9" dy="0.71em">2000</text></g><g class="tick" opacity="1" transform="translate(188.34214945424011,0)"><line stroke="currentColor" y2="6"/><text fill="currentColor" y="9" dy="0.71em">2005</text></g><g class="tick" opacity="1" transform="translate(215.17254408060452,0)"><line stroke="currentColor" y2="6"/><text fill="currentColor" y="9" dy="0.71em">2010</text></g><g class="tick" opacity="1" transform="translate(242.00293870696893,0)"><line stroke="currentColor" y2="6"/><text fill="currentColor" y="9" dy="0.71em">2015</text></g><g class="tick" opacity="1" transform="translate(268.8333333333333,0)"><line stroke="currentColor" y2="6"/><text fill="currentColor" y="9" dy="0.71em">2020</text></g><text x="268.3333333333333" dy="-5" text-anchor="end" display="none" style="font-family: Arial, sans-serif; font-size: 12px; fill: rgb(123, 123, 123); font-weight: bold;">Year</text></g><g transform="translate(0,0)" fill="none" font-size="10" font-family="sans-serif" text-anchor="end"><path class="domain" stroke="currentColor" d="M0.5,370.5V0.5"/><g class="tick" opacity="1" transform="translate(0,370.5)"><line stroke="currentColor" x2="-6"/><text fill="currentColor" x="-9" dy="0.32em">0</text></g><g class="tick" opacity="1" transform="translate(0,336.8636363636364)"><line stroke="currentColor" x2="-6"/><text fill="currentColor" x="-9" dy="0.32em">2,000</text></g><g class="tick" opacity="1" transform="translate(0,303.2272727272727)"><line stroke="currentColor" x2="-6"/><text fill="currentColor" x="-9" dy="0.32em">4,000</text></g><g class="tick" opacity="1" transform="translate(0,269.5909090909091)"><line stroke="currentColor" x2="-6"/><text fill="currentColor" x="-9" dy="0.32em">6,000</text></g><g class="tick" opacity="1" transform="translate(0,235.95454545454544)"><line stroke="currentColor" x2="-6"/><text fill="currentColor" x="-9" dy="0.32em">8,000</text></g><g class="tick" opacity="1" transform="translate(0,202.3181818181818)"><line stroke="currentColor" x2="-6"/><text fill="currentColor" x="-9" dy="0.32em">10,000</text></g><g class="tick" opacity="1" transform="translate(0,168.6818181818182)"><line stroke="currentColor" x2="-6"/><text fill="currentColor" x="-9" dy="0.32em">12,000</text></g><g class="tick" opacity="1" transform="translate(0,135.04545454545456)"><line stroke="currentColor" x2="-6"/><text fill="currentColor" x="-9" dy="0.32em">14,000</text></g><g class="tick" opacity="1" transform="translate(0,101.4090909090909)"><line stroke="currentColor" x2="-6"/><text fill="currentColor" x="-9" dy="0.32em">16,000</text></g><g class="tick" opacity="1" transform="translate(0,67.77272727272725)"><line stroke="currentColor" x2="-6"/><text fill="currentColor" x="-9" dy="0.32em">18,000</text></g><g class="tick" opacity="1" transform="translate(0,34.13636363636365)"><line stroke="currentColor" x2="-6"/><text fill="currentColor" x="-9" dy="0.32em">20,000</text></g><g class="tick" opacity="1" transform="translate(0,0.5)"><line stroke="currentColor" x2="-6"/><text fill="currentColor" x="-9" dy="0.32em">22,000</text></g><text x="4" text-anchor="start" dominant-baseline="hanging" display="none" style="font-family: Arial, sans-serif; font-size: 12px; fill: rgb(123, 123, 123); font-weight: bold;">Revenues in millions (Adjusted for inflation)</text></g></g><g id="viz"><g id="Vinyl"><path d="M16.10411418975651,230.93808635045454C18.78568429890848,230.93808635045454,18.78568429890848,234.8171772990909,21.46725440806045,234.8171772990909C24.148824517212425,234.8171772990909,24.148824517212425,234.4160382,26.8303946263644,234.4160382C29.511964735516372,234.4160382,29.511964735516372,225.8131690072727,32.19353484466834,225.8131690072727C34.882451721242646,225.8131690072727,34.882451721242646,196.8631426590909,37.57136859781696,196.8631426590909C40.25293870696893,196.8631426590909,40.25293870696893,189.72973310818185,42.9345088161209,189.72973310818185C45.61607892527287,189.72973310818185,45.61607892527287,227.23384500681817,48.29764903442485,227.23384500681817C50.97921914357683,227.23384500681817,50.97921914357683,242.15739712563638,53.6607892527288,242.15739712563638C56.3497061293031,242.15739712563638,56.3497061293031,247.10655709068183,59.03862300587741,247.10655709068183C61.72019311502939,247.10655709068183,61.72019311502939,271.61516625813636,64.40176322418137,271.61516625813636C67.08333333333333,271.61516625813636,67.08333333333333,285.46109522527274,69.76490344248529,285.46109522527274C72.44647355163727,285.46109522527274,72.44647355163727,293.545046041,75.12804366078925,293.545046041C77.81696053736354,293.545046041,77.81696053736354,307.60260643422725,80.50587741393785,307.60260643422725C83.18744752308983,307.60260643422725,83.18744752308983,322.4876860842273,85.8690176322418,322.4876860842273C88.55058774139377,322.4876860842273,88.55058774139377,332.2869098662273,91.23215785054575,332.2869098662273C93.91372795969772,332.2869098662273,93.91372795969772,344.10011683927274,96.5952980688497,344.10011683927274C99.28390883011474,344.10011683927274,99.28390883011474,358.32496576136367,101.97251959137978,358.32496576136367C104.65408970053176,358.32496576136367,104.65408970053176,364.04886625077273,107.33565980968373,364.04886625077273C110.01722991883571,364.04886625077273,110.01722991883571,367.0546204448864,112.69880002798767,367.0546204448864C115.38037013713965,367.0546204448864,115.38037013713965,367.5513549234455,118.06194024629163,367.5513549234455C120.75085712286594,367.5513549234455,120.75085712286594,368.1611031890636,123.43977399944023,368.1611031890636C126.12165022390148,368.1611031890636,126.12165022390148,368.11417284685456,128.80352644836273,368.11417284685456C131.48509655751468,368.11417284685456,131.48509655751468,367.9742949588682,134.16666666666666,367.9742949588682C136.84823677581863,367.9742949588682,136.84823677581863,367.6898437084909,139.52980688497058,367.6898437084909C142.21872376154488,367.6898437084909,142.21872376154488,368.1542158307909,144.9076406381192,368.1542158307909C147.58921074727118,368.1542158307909,147.58921074727118,368.4252070627409,150.27078085642316,368.4252070627409C152.95235096557514,368.4252070627409,152.95235096557514,368.45923620189546,155.6339210747271,368.45923620189546C158.3154911838791,368.45923620189546,158.3154911838791,368.6516664396409,160.99706129303104,368.6516664396409C163.68597816960533,368.6516664396409,163.68597816960533,368.57243629892275,166.37489504617966,368.57243629892275C169.05646515533164,368.57243629892275,169.05646515533164,368.9149208432682,171.7380352644836,368.9149208432682C174.4196053736356,368.9149208432682,174.4196053736356,368.9905085257136,177.10117548278757,368.9905085257136C179.78274559193954,368.9905085257136,179.78274559193954,369.10774119825,182.4643157010915,369.10774119825C185.1532325776658,369.10774119825,185.1532325776658,369.3967670563091,187.84214945424011,369.3967670563091C190.5237195633921,369.3967670563091,190.5237195633921,369.45400813856816,193.20528967254407,369.45400813856816C195.88685978169605,369.45400813856816,195.88685978169605,369.44205715893503,198.56842989084802,369.44205715893503C201.2496938846907,369.44205715893503,201.2496938846907,368.8097644705591,203.93095787853343,368.8097644705591C206.61987475510773,368.8097644705591,206.61987475510773,368.67123537762956,209.30879163168203,368.67123537762956C211.99066785614326,368.67123537762956,211.99066785614326,368.2016942671518,214.67254408060452,368.2016942671518C217.3541141897565,368.2016942671518,217.3541141897565,367.62975272003456,220.03568429890848,367.62975272003456C222.71725440806046,367.62975272003456,222.71725440806046,366.90125909453275,225.3988245172124,366.90125909453275C228.0877413937867,366.90125909453275,228.0877413937867,366.0554084124341,230.77665827036103,366.0554084124341C233.458228379513,366.0554084124341,233.458228379513,365.4712829744677,236.13979848866498,365.4712829744677C238.82136859781696,365.4712829744677,238.82136859781696,363.8478493333359,241.50293870696893,363.8478493333359C244.1845088161209,363.8478493333359,244.1845088161209,363.545077505175,246.86607892527286,363.545077505175C249.55499580184716,363.545077505175,249.55499580184716,363.0784477591727,252.24391267842148,363.0784477591727C254.92548278757346,363.0784477591727,254.92548278757346,362.73107446189135,257.60705289672546,362.73107446189135C260.2886230058774,362.73107446189135,260.2886230058774,361.5171636090823,262.97019311502936,361.5171636090823" stroke="#8c564b" fill="none"/><text font-family="sans-serif" font-size="10" class="labels" x="42.9345088161209" y="189.72973310818185" dx="0" dy="-4" text-anchor="middle">Vinyl</text></g></g></g><text y="4" x="4" style="font-family: Arial, sans-serif; font-size: 12px; fill: black; font-weight: bold; dominant-baseline: hanging;">Vinyl</text></g><g id="Streaming" transform="translate(0,400)"><g transform="translate(50,10)" clip-path="url(#serieClipPath)"><g id="axis"><g transform="translate(0,370)" fill="none" font-size="10" font-family="sans-serif" text-anchor="middle"><path class="domain" stroke="currentColor" d="M0.5,6V0.5H268.8333333333333V6"/><g class="tick" opacity="1" transform="translate(0.5,0)"><line stroke="currentColor" y2="6"/><text fill="currentColor" y="9" dy="0.71em">1970</text></g><g class="tick" opacity="1" transform="translate(27.3303946263644,0)"><line stroke="currentColor" y2="6"/><text fill="currentColor" y="9" dy="0.71em">1975</text></g><g class="tick" opacity="1" transform="translate(54.1607892527288,0)"><line stroke="currentColor" y2="6"/><text fill="currentColor" y="9" dy="0.71em">1980</text></g><g class="tick" opacity="1" transform="translate(81.00587741393785,0)"><line stroke="currentColor" y2="6"/><text fill="currentColor" y="9" dy="0.71em">1985</text></g><g class="tick" opacity="1" transform="translate(107.83565980968373,0)"><line stroke="currentColor" y2="6"/><text fill="currentColor" y="9" dy="0.71em">1990</text></g><g class="tick" opacity="1" transform="translate(134.66666666666666,0)"><line stroke="currentColor" y2="6"/><text fill="currentColor" y="9" dy="0.71em">1995</text></g><g class="tick" opacity="1" transform="translate(161.49706129303104,0)"><line stroke="currentColor" y2="6"/><text fill="currentColor" y="9" dy="0.71em">2000</text></g><g class="tick" opacity="1" transform="translate(188.34214945424011,0)"><line stroke="currentColor" y2="6"/><text fill="currentColor" y="9" dy="0.71em">2005</text></g><g class="tick" opacity="1" transform="translate(215.17254408060452,0)"><line stroke="currentColor" y2="6"/><text fill="currentColor" y="9" dy="0.71em">2010</text></g><g class="tick" opacity="1" transform="translate(242.00293870696893,0)"><line stroke="currentColor" y2="6"/><text fill="currentColor" y="9" dy="0.71em">2015</text></g><g class="tick" opacity="1" transform="translate(268.8333333333333,0)"><line stroke="currentColor" y2="6"/><text fill="currentColor" y="9" dy="0.71em">2020</text></g><text x="268.3333333333333" dy="-5" text-anchor="end" display="none" style="font-family: Arial, sans-serif; font-size: 12px; fill: rgb(123, 123, 123); font-weight: bold;">Year</text></g><g transform="translate(0,0)" fill="none" font-size="10" font-family="sans-serif" text-anchor="end"><path class="domain" stroke="currentColor" d="M0.5,370.5V0.5"/><g class="tick" opacity="1" transform="translate(0,370.5)"><line stroke="currentColor" x2="-6"/><text fill="currentColor" x="-9" dy="0.32em">0</text></g><g class="tick" opacity="1" transform="translate(0,336.8636363636364)"><line stroke="currentColor" x2="-6"/><text fill="currentColor" x="-9" dy="0.32em">2,000</text></g><g class="tick" opacity="1" transform="translate(0,303.2272727272727)"><line stroke="currentColor" x2="-6"/><text fill="currentColor" x="-9" dy="0.32em">4,000</text></g><g class="tick" opacity="1" transform="translate(0,269.5909090909091)"><line stroke="currentColor" x2="-6"/><text fill="currentColor" x="-9" dy="0.32em">6,000</text></g><g class="tick" opacity="1" transform="translate(0,235.95454545454544)"><line stroke="currentColor" x2="-6"/><text fill="currentColor" x="-9" dy="0.32em">8,000</text></g><g class="tick" opacity="1" transform="translate(0,202.3181818181818)"><line stroke="currentColor" x2="-6"/><text fill="currentColor" x="-9" dy="0.32em">10,000</text></g><g class="tick" opacity="1" transform="translate(0,168.6818181818182)"><line stroke="currentColor" x2="-6"/><text fill="currentColor" x="-9" dy="0.32em">12,000</text></g><g class="tick" opacity="1" transform="translate(0,135.04545454545456)"><line stroke="currentColor" x2="-6"/><text fill="currentColor" x="-9" dy="0.32em">14,000</text></g><g class="tick" opacity="1" transform="translate(0,101.4090909090909)"><line stroke="currentColor" x2="-6"/><text fill="currentColor" x="-9" dy="0.32em">16,000</text></g><g class="tick" opacity="1" transform="translate(0,67.77272727272725)"><line stroke="currentColor" x2="-6"/><text fill="currentColor" x="-9" dy="0.32em">18,000</text></g><g class="tick" opacity="1" transform="translate(0,34.13636363636365)"><line stroke="currentColor" x2="-6"/><text fill="currentColor" x="-9" dy="0.32em">20,000</text></g><g class="tick" opacity="1" transform="translate(0,0.5)"><line stroke="currentColor" x2="-6"/><text fill="currentColor" x="-9" dy="0.32em">22,000</text></g><text x="4" text-anchor="start" dominant-baseline="hanging" display="none" style="font-family: Arial, sans-serif; font-size: 12px; fill: rgb(123, 123, 123); font-weight: bold;">Revenues in millions (Adjusted for inflation)</text></g></g><g id="viz"><g id="Streaming"><path d="M182.4643157010915,369.8429442415404C185.1532325776658,369.8429442415404,185.1532325776658,366.26612017249545,187.84214945424011,366.26612017249545C190.5237195633921,366.26612017249545,190.5237195633921,364.90265410490906,193.20528967254407,364.90265410490906C195.88685978169605,364.90265410490906,195.88685978169605,364.3956819459955,198.56842989084802,364.3956819459955C201.2496938846907,364.3956819459955,201.2496938846907,363.58151511518184,203.93095787853343,363.58151511518184C206.61987475510773,363.58151511518184,206.61987475510773,362.7509175895909,209.30879163168203,362.7509175895909C211.99066785614326,362.7509175895909,211.99066785614326,360.8980490535909,214.67254408060452,360.8980490535909C217.3541141897565,360.8980490535909,217.3541141897565,357.5065030517727,220.03568429890848,357.5065030517727C222.71725440806046,357.5065030517727,222.71725440806046,350.65806274972726,225.3988245172124,350.65806274972726C228.0877413937867,350.65806274972726,228.0877413937867,343.1524967833182,230.77665827036103,343.1524967833182C233.458228379513,343.1524967833182,233.458228379513,336.80893030745455,236.13979848866498,336.80893030745455C238.82136859781696,336.80893030745455,238.82136859781696,327.7082948775454,241.50293870696893,327.7082948775454C244.1845088161209,327.7082948775454,244.1845088161209,299.02041136688183,246.86607892527286,299.02041136688183C249.55499580184716,299.02041136688183,249.55499580184716,270.63739741986365,252.24391267842148,270.63739741986365C254.92548278757346,270.63739741986365,254.92548278757346,243.85940120404547,257.60705289672546,243.85940120404547C260.2886230058774,243.85940120404547,260.2886230058774,221.47341591086365,262.97019311502936,221.47341591086365" stroke="#d62728" fill="none"/><text font-family="sans-serif" font-size="10" class="labels" x="262.97019311502936" y="221.47341591086365" dx="0" dy="-4" text-anchor="middle">Streaming</text></g></g></g><text y="4" x="4" style="font-family: Arial, sans-serif; font-size: 12px; fill: black; font-weight: bold; dominant-baseline: hanging;">Streaming</text></g><g id="Download" transform="translate(333.3333333333333,400)"><g transform="translate(50,10)" clip-path="url(#serieClipPath)"><g id="axis"><g transform="translate(0,370)" fill="none" font-size="10" font-family="sans-serif" text-anchor="middle"><path class="domain" stroke="currentColor" d="M0.5,6V0.5H268.8333333333333V6"/><g class="tick" opacity="1" transform="translate(0.5,0)"><line stroke="currentColor" y2="6"/><text fill="currentColor" y="9" dy="0.71em">1970</text></g><g class="tick" opacity="1" transform="translate(27.3303946263644,0)"><line stroke="currentColor" y2="6"/><text fill="currentColor" y="9" dy="0.71em">1975</text></g><g class="tick" opacity="1" transform="translate(54.1607892527288,0)"><line stroke="currentColor" y2="6"/><text fill="currentColor" y="9" dy="0.71em">1980</text></g><g class="tick" opacity="1" transform="translate(81.00587741393785,0)"><line stroke="currentColor" y2="6"/><text fill="currentColor" y="9" dy="0.71em">1985</text></g><g class="tick" opacity="1" transform="translate(107.83565980968373,0)"><line stroke="currentColor" y2="6"/><text fill="currentColor" y="9" dy="0.71em">1990</text></g><g class="tick" opacity="1" transform="translate(134.66666666666666,0)"><line stroke="currentColor" y2="6"/><text fill="currentColor" y="9" dy="0.71em">1995</text></g><g class="tick" opacity="1" transform="translate(161.49706129303104,0)"><line stroke="currentColor" y2="6"/><text fill="currentColor" y="9" dy="0.71em">2000</text></g><g class="tick" opacity="1" transform="translate(188.34214945424011,0)"><line stroke="currentColor" y2="6"/><text fill="currentColor" y="9" dy="0.71em">2005</text></g><g class="tick" opacity="1" transform="translate(215.17254408060452,0)"><line stroke="currentColor" y2="6"/><text fill="currentColor" y="9" dy="0.71em">2010</text></g><g class="tick" opacity="1" transform="translate(242.00293870696893,0)"><line stroke="currentColor" y2="6"/><text fill="currentColor" y="9" dy="0.71em">2015</text></g><g class="tick" opacity="1" transform="translate(268.8333333333333,0)"><line stroke="currentColor" y2="6"/><text fill="currentColor" y="9" dy="0.71em">2020</text></g><text x="268.3333333333333" dy="-5" text-anchor="end" display="none" style="font-family: Arial, sans-serif; font-size: 12px; fill: rgb(123, 123, 123); font-weight: bold;">Year</text></g><g transform="translate(0,0)" fill="none" font-size="10" font-family="sans-serif" text-anchor="end"><path class="domain" stroke="currentColor" d="M0.5,370.5V0.5"/><g class="tick" opacity="1" transform="translate(0,370.5)"><line stroke="currentColor" x2="-6"/><text fill="currentColor" x="-9" dy="0.32em">0</text></g><g class="tick" opacity="1" transform="translate(0,336.8636363636364)"><line stroke="currentColor" x2="-6"/><text fill="currentColor" x="-9" dy="0.32em">2,000</text></g><g class="tick" opacity="1" transform="translate(0,303.2272727272727)"><line stroke="currentColor" x2="-6"/><text fill="currentColor" x="-9" dy="0.32em">4,000</text></g><g class="tick" opacity="1" transform="translate(0,269.5909090909091)"><line stroke="currentColor" x2="-6"/><text fill="currentColor" x="-9" dy="0.32em">6,000</text></g><g class="tick" opacity="1" transform="translate(0,235.95454545454544)"><line stroke="currentColor" x2="-6"/><text fill="currentColor" x="-9" dy="0.32em">8,000</text></g><g class="tick" opacity="1" transform="translate(0,202.3181818181818)"><line stroke="currentColor" x2="-6"/><text fill="currentColor" x="-9" dy="0.32em">10,000</text></g><g class="tick" opacity="1" transform="translate(0,168.6818181818182)"><line stroke="currentColor" x2="-6"/><text fill="currentColor" x="-9" dy="0.32em">12,000</text></g><g class="tick" opacity="1" transform="translate(0,135.04545454545456)"><line stroke="currentColor" x2="-6"/><text fill="currentColor" x="-9" dy="0.32em">14,000</text></g><g class="tick" opacity="1" transform="translate(0,101.4090909090909)"><line stroke="currentColor" x2="-6"/><text fill="currentColor" x="-9" dy="0.32em">16,000</text></g><g class="tick" opacity="1" transform="translate(0,67.77272727272725)"><line stroke="currentColor" x2="-6"/><text fill="currentColor" x="-9" dy="0.32em">18,000</text></g><g class="tick" opacity="1" transform="translate(0,34.13636363636365)"><line stroke="currentColor" x2="-6"/><text fill="currentColor" x="-9" dy="0.32em">20,000</text></g><g class="tick" opacity="1" transform="translate(0,0.5)"><line stroke="currentColor" x2="-6"/><text fill="currentColor" x="-9" dy="0.32em">22,000</text></g><text x="4" text-anchor="start" dominant-baseline="hanging" display="none" style="font-family: Arial, sans-serif; font-size: 12px; fill: rgb(123, 123, 123); font-weight: bold;">Revenues in millions (Adjusted for inflation)</text></g></g><g id="viz"><g id="Download"><path d="M182.4643157010915,365.82322729255C185.1532325776658,365.82322729255,185.1532325776658,349.6507952596682,187.84214945424011,349.6507952596682C190.5237195633921,349.6507952596682,190.5237195633921,334.8091183020818,193.20528967254407,334.8091183020818C195.88685978169605,334.8091183020818,195.88685978169605,320.3783474677955,198.56842989084802,320.3783474677955C201.2496938846907,320.3783474677955,201.2496938846907,316.36151664152726,203.93095787853343,316.36151664152726C206.61987475510773,316.36151664152726,206.61987475510773,316.68908151996817,209.30879163168203,316.68908151996817C211.99066785614326,316.68908151996817,211.99066785614326,316.89082608187726,214.67254408060452,316.89082608187726C217.3541141897565,316.89082608187726,217.3541141897565,314.5323906752182,220.03568429890848,314.5323906752182C222.71725440806046,314.5323906752182,222.71725440806046,313.5140582394636,225.3988245172124,313.5140582394636C228.0877413937867,313.5140582394636,228.0877413937867,316.10002866616816,230.77665827036103,316.10002866616816C233.458228379513,316.10002866616816,233.458228379513,323.62930542465,236.13979848866498,323.62930542465C238.82136859781696,323.62930542465,238.82136859781696,328.0825632256991,241.50293870696893,328.0825632256991C244.1845088161209,328.0825632256991,244.1845088161209,336.9200393870368,246.86607892527286,336.9200393870368C249.55499580184716,336.9200393870368,249.55499580184716,345.4036246509582,252.24391267842148,345.4036246509582C254.92548278757346,345.4036246509582,254.92548278757346,352.24182363837457,257.60705289672546,352.24182363837457C260.2886230058774,352.24182363837457,260.2886230058774,355.6349168445709,262.97019311502936,355.6349168445709" stroke="#ff7f0e" fill="none"/><text font-family="sans-serif" font-size="10" class="labels" x="225.3988245172124" y="313.5140582394636" dx="0" dy="-4" text-anchor="middle">Download</text></g></g></g><text y="4" x="4" style="font-family: Arial, sans-serif; font-size: 12px; fill: black; font-weight: bold; dominant-baseline: hanging;">Download</text></g><g id="Other" transform="translate(666.6666666666666,400)"><g transform="translate(50,10)" clip-path="url(#serieClipPath)"><g id="axis"><g transform="translate(0,370)" fill="none" font-size="10" font-family="sans-serif" text-anchor="middle"><path class="domain" stroke="currentColor" d="M0.5,6V0.5H268.8333333333333V6"/><g class="tick" opacity="1" transform="translate(0.5,0)"><line stroke="currentColor" y2="6"/><text fill="currentColor" y="9" dy="0.71em">1970</text></g><g class="tick" opacity="1" transform="translate(27.3303946263644,0)"><line stroke="currentColor" y2="6"/><text fill="currentColor" y="9" dy="0.71em">1975</text></g><g class="tick" opacity="1" transform="translate(54.1607892527288,0)"><line stroke="currentColor" y2="6"/><text fill="currentColor" y="9" dy="0.71em">1980</text></g><g class="tick" opacity="1" transform="translate(81.00587741393785,0)"><line stroke="currentColor" y2="6"/><text fill="currentColor" y="9" dy="0.71em">1985</text></g><g class="tick" opacity="1" transform="translate(107.83565980968373,0)"><line stroke="currentColor" y2="6"/><text fill="currentColor" y="9" dy="0.71em">1990</text></g><g class="tick" opacity="1" transform="translate(134.66666666666666,0)"><line stroke="currentColor" y2="6"/><text fill="currentColor" y="9" dy="0.71em">1995</text></g><g class="tick" opacity="1" transform="translate(161.49706129303104,0)"><line stroke="currentColor" y2="6"/><text fill="currentColor" y="9" dy="0.71em">2000</text></g><g class="tick" opacity="1" transform="translate(188.34214945424011,0)"><line stroke="currentColor" y2="6"/><text fill="currentColor" y="9" dy="0.71em">2005</text></g><g class="tick" opacity="1" transform="translate(215.17254408060452,0)"><line stroke="currentColor" y2="6"/><text fill="currentColor" y="9" dy="0.71em">2010</text></g><g class="tick" opacity="1" transform="translate(242.00293870696893,0)"><line stroke="currentColor" y2="6"/><text fill="currentColor" y="9" dy="0.71em">2015</text></g><g class="tick" opacity="1" transform="translate(268.8333333333333,0)"><line stroke="currentColor" y2="6"/><text fill="currentColor" y="9" dy="0.71em">2020</text></g><text x="268.3333333333333" dy="-5" text-anchor="end" display="none" style="font-family: Arial, sans-serif; font-size: 12px; fill: rgb(123, 123, 123); font-weight: bold;">Year</text></g><g transform="translate(0,0)" fill="none" font-size="10" font-family="sans-serif" text-anchor="end"><path class="domain" stroke="currentColor" d="M0.5,370.5V0.5"/><g class="tick" opacity="1" transform="translate(0,370.5)"><line stroke="currentColor" x2="-6"/><text fill="currentColor" x="-9" dy="0.32em">0</text></g><g class="tick" opacity="1" transform="translate(0,336.8636363636364)"><line stroke="currentColor" x2="-6"/><text fill="currentColor" x="-9" dy="0.32em">2,000</text></g><g class="tick" opacity="1" transform="translate(0,303.2272727272727)"><line stroke="currentColor" x2="-6"/><text fill="currentColor" x="-9" dy="0.32em">4,000</text></g><g class="tick" opacity="1" transform="translate(0,269.5909090909091)"><line stroke="currentColor" x2="-6"/><text fill="currentColor" x="-9" dy="0.32em">6,000</text></g><g class="tick" opacity="1" transform="translate(0,235.95454545454544)"><line stroke="currentColor" x2="-6"/><text fill="currentColor" x="-9" dy="0.32em">8,000</text></g><g class="tick" opacity="1" transform="translate(0,202.3181818181818)"><line stroke="currentColor" x2="-6"/><text fill="currentColor" x="-9" dy="0.32em">10,000</text></g><g class="tick" opacity="1" transform="translate(0,168.6818181818182)"><line stroke="currentColor" x2="-6"/><text fill="currentColor" x="-9" dy="0.32em">12,000</text></g><g class="tick" opacity="1" transform="translate(0,135.04545454545456)"><line stroke="currentColor" x2="-6"/><text fill="currentColor" x="-9" dy="0.32em">14,000</text></g><g class="tick" opacity="1" transform="translate(0,101.4090909090909)"><line stroke="currentColor" x2="-6"/><text fill="currentColor" x="-9" dy="0.32em">16,000</text></g><g class="tick" opacity="1" transform="translate(0,67.77272727272725)"><line stroke="currentColor" x2="-6"/><text fill="currentColor" x="-9" dy="0.32em">18,000</text></g><g class="tick" opacity="1" transform="translate(0,34.13636363636365)"><line stroke="currentColor" x2="-6"/><text fill="currentColor" x="-9" dy="0.32em">20,000</text></g><g class="tick" opacity="1" transform="translate(0,0.5)"><line stroke="currentColor" x2="-6"/><text fill="currentColor" x="-9" dy="0.32em">22,000</text></g><text x="4" text-anchor="start" dominant-baseline="hanging" display="none" style="font-family: Arial, sans-serif; font-size: 12px; fill: rgb(123, 123, 123); font-weight: bold;">Revenues in millions (Adjusted for inflation)</text></g></g><g id="viz"><g id="Other"><path d="M101.97251959137978,365.99851811363635C104.65408970053176,365.99851811363635,104.65408970053176,364.33178361081815,107.33565980968373,364.33178361081815C110.01722991883571,364.33178361081815,110.01722991883571,366.2717114111818,112.69880002798767,366.2717114111818C115.38037013713965,366.2717114111818,115.38037013713965,365.17626113981817,118.06194024629163,365.17626113981817C120.75085712286594,365.17626113981817,120.75085712286594,363.6531279979545,123.43977399944023,363.6531279979545C126.12165022390148,363.6531279979545,126.12165022390148,363.29515915172726,128.80352644836273,363.29515915172726C131.48509655751468,363.29515915172726,131.48509655751468,363.78464038254543,134.16666666666666,363.78464038254543C136.84823677581863,363.78464038254543,136.84823677581863,363.5299181442727,139.52980688497058,363.5299181442727C142.21872376154488,363.5299181442727,142.21872376154488,361.3229391523182,144.9076406381192,361.3229391523182C147.58921074727118,361.3229391523182,147.58921074727118,356.59975189072725,150.27078085642316,356.59975189072725C152.95235096557514,356.59975189072725,152.95235096557514,360.2779610922273,155.6339210747271,360.2779610922273C158.3154911838791,360.2779610922273,158.3154911838791,362.96119943227274,160.99706129303104,362.96119943227274C163.68597816960533,362.96119943227274,163.68597816960533,361.8619157723604,166.37489504617966,361.8619157723604C169.05646515533164,361.8619157723604,169.05646515533164,362.90396472175,171.7380352644836,362.90396472175C174.4196053736356,362.90396472175,174.4196053736356,360.46825064014547,177.10117548278757,360.46825064014547C179.78274559193954,360.46825064014547,179.78274559193954,356.0311421781541,182.4643157010915,356.0311421781541C185.1532325776658,356.0311421781541,185.1532325776658,356.4734919479486,187.84214945424011,356.4734919479486C190.5237195633921,356.4734919479486,190.5237195633921,360.2873166517473,193.20528967254407,360.2873166517473C195.88685978169605,360.2873166517473,195.88685978169605,359.83050650717274,198.56842989084802,359.83050650717274C201.2496938846907,359.83050650717274,201.2496938846907,365.38484176385595,203.93095787853343,365.38484176385595C206.61987475510773,365.38484176385595,206.61987475510773,361.6085407630859,209.30879163168203,361.6085407630859C211.99066785614326,361.6085407630859,211.99066785614326,362.6332563400841,214.67254408060452,362.6332563400841C217.3541141897565,362.6332563400841,217.3541141897565,363.30022845776773,220.03568429890848,363.30022845776773C222.71725440806046,363.30022845776773,222.71725440806046,364.17488612633366,225.3988245172124,364.17488612633366C228.0877413937867,364.17488612633366,228.0877413937867,364.4232899008764,230.77665827036103,364.4232899008764C233.458228379513,364.4232899008764,233.458228379513,364.83933119637226,236.13979848866498,364.83933119637226C238.82136859781696,364.83933119637226,238.82136859781696,364.87546963315816,241.50293870696893,364.87546963315816C244.1845088161209,364.87546963315816,244.1845088161209,365.02789271004775,246.86607892527286,365.02789271004775C249.55499580184716,365.02789271004775,249.55499580184716,365.1662290812959,252.24391267842148,365.1662290812959C254.92548278757346,365.1662290812959,254.92548278757346,364.548794394305,257.60705289672546,364.548794394305C260.2886230058774,364.548794394305,260.2886230058774,364.8431858691877,262.97019311502936,364.8431858691877" stroke="#2ca02c" fill="none"/><text font-family="sans-serif" font-size="10" class="labels" x="182.4643157010915" y="356.0311421781541" dx="0" dy="-4" text-anchor="middle">Other</text></g></g></g><text y="4" x="4" style="font-family: Arial, sans-serif; font-size: 12px; fill: black; font-weight: bold; dominant-baseline: hanging;">Other</text></g><g id="grid"><rect x="0" y="0" width="333.3333333333333" height="400" fill="none" stroke="#ccc"/><rect x="333.3333333333333" y="0" width="333.3333333333333" height="400" fill="none" stroke="#ccc"/><rect x="666.6666666666666" y="0" width="333.3333333333333" height="400" fill="none" stroke="#ccc"/><rect x="0" y="400" width="333.3333333333333" height="400" fill="none" stroke="#ccc"/><rect x="333.3333333333333" y="400" width="333.3333333333333" height="400" fill="none" stroke="#ccc"/><rect x="666.6666666666666" y="400" width="333.3333333333333" height="400" fill="none" stroke="#ccc"/></g></g></svg>